Coordinates
version=1
nRows=18
nColumns=34
inDegrees=no

Units are S.I. units (second, meters, Newtons, ...)
If the header above contains a line with 'inDegrees', this indicates whether rotational values are in degrees (yes) or radians (no).

endheader
time	pelvis_tilt	pelvis_list	pelvis_rotation	pelvis_tx	pelvis_ty	pelvis_tz	hip_flexion_r	hip_adduction_r	hip_rotation_r	knee_angle_r	ankle_angle_r	subtalar_angle_r	mtp_angle_r	hip_flexion_l	hip_adduction_l	hip_rotation_l	knee_angle_l	ankle_angle_l	subtalar_angle_l	mtp_angle_l	lumbar_extension	lumbar_bending	lumbar_rotation	arm_flex_r	arm_add_r	arm_rot_r	elbow_flex_r	pro_sup_r	arm_flex_l	arm_add_l	arm_rot_l	elbow_flex_l	pro_sup_l
0	0.137541	0.0166179	0.0191069	-0.0106209	0.884207	-0.233198	0.25916	-0.000865045	-0.133309	0.0538574	0.194094	0.169849	0.000337208	-0.500364	0.0907533	0.00485953	0.0459955	0.256503	-0.0399716	0.00029078	-0.396759	0.0443241	-0.112858	-0.19233	-0.221138	-0.289842	0.652367	2.13467	0.153167	-0.263995	-0.148686	1.0112	2.13756
0.01	0.142503	0.00443444	0.0200472	0.00427056	0.889841	-0.232789	0.243392	0.0161951	-0.117628	0.0556738	0.162051	0.13969	0.000341175	-0.509279	0.0756188	-0.0236844	0.0709536	0.264895	-0.0101735	0.000294918	-0.400072	0.0600254	-0.107769	-0.195578	-0.221902	-0.296905	0.654478	2.13449	0.1458	-0.256407	-0.149398	1.00279	2.1377
0.02	0.145614	-0.00804683	0.0203351	0.0190568	0.894664	-0.232263	0.231494	0.0327615	-0.106617	0.0619288	0.13438	0.11462	0.000345143	-0.512636	0.0584112	-0.0522099	0.102114	0.267465	0.0187335	0.000299056	-0.401514	0.0756836	-0.101763	-0.197999	-0.222762	-0.302526	0.65607	2.13456	0.138468	-0.248456	-0.15009	0.992317	2.13778
0.03	0.146863	-0.0208213	0.0199733	0.0337156	0.898733	-0.231623	0.223442	0.048838	-0.100163	0.0725572	0.111108	0.0945483	0.000349112	-0.51039	0.0391351	-0.0806147	0.139516	0.264127	0.0465658	0.000303194	-0.40108	0.0912943	-0.0948549	-0.199581	-0.223718	-0.306701	0.657153	2.13491	0.131171	-0.240144	-0.150783	0.979801	2.13783
0.04	0.146222	-0.0338679	0.0189709	0.0482198	0.902109	-0.230876	0.219167	0.0644341	-0.0979291	0.0873612	0.0923072	0.0792001	0.00035308	-0.502419	0.0178185	-0.108595	0.183251	0.254642	0.0727815	0.000307332	-0.398765	0.10684	-0.0870955	-0.200287	-0.224773	-0.309423	0.657762	2.13555	0.123902	-0.231484	-0.151543	0.965287	2.13785
0.05	0.143654	-0.0471389	0.0173489	0.062538	0.904853	-0.230028	0.218521	0.0795665	-0.0992957	0.105951	0.0780672	0.0680603	0.000357048	-0.488545	-0.0054596	-0.13561	0.233412	0.238645	0.0964128	0.000311471	-0.394566	0.122283	-0.0785847	-0.200065	-0.225933	-0.310695	0.657987	2.13657	0.116649	-0.222506	-0.152486	0.948886	2.13789
0.06	0.139138	-0.0605551	0.0151451	0.0766373	0.90703	-0.229089	0.221232	0.094263	-0.10337	0.127707	0.0684328	0.0603823	0.000361016	-0.468581	-0.030542	-0.160923	0.290015	0.215757	0.116134	0.000315609	-0.388515	0.13756	-0.0694753	-0.198849	-0.227205	-0.310545	0.657986	2.13802	0.109396	-0.213265	-0.153767	0.930794	2.13802
0.07	0.132706	-0.0740073	0.0124192	0.0904832	0.908704	-0.228071	0.226868	0.108566	-0.109066	0.151764	0.063317	0.0552475	0.000364984	-0.442429	-0.057175	-0.183696	0.352887	0.185772	0.130443	0.000319747	-0.380705	0.152589	-0.0599606	-0.196584	-0.228602	-0.309035	0.657996	2.13995	0.102128	-0.203845	-0.155545	0.911296	2.13829
0.08	0.124484	-0.0873638	0.00925538	0.104046	0.909943	-0.226991	0.234808	0.122534	-0.115232	0.177044	0.0624338	0.0516624	0.000368952	-0.410161	-0.0850032	-0.203123	0.421582	0.148878	0.137923	0.000323885	-0.371324	0.16727	-0.0502527	-0.193238	-0.230133	-0.306269	0.658322	2.14237	0.0948475	-0.194366	-0.157928	0.890755	2.13876
0.09	0.114716	-0.100477	0.0057653	0.117303	0.910819	-0.22587	0.244248	0.13623	-0.120795	0.202334	0.0652784	0.048675	0.00037292	-0.372096	-0.113574	-0.218537	0.495322	0.105856	0.137496	0.000328023	-0.360676	0.181488	-0.0405584	-0.188808	-0.231809	-0.302384	0.65931	2.14519	0.0875812	-0.184982	-0.160924	0.869577	2.13949
0.1	0.103778	-0.113188	0.00209054	0.13024	0.911402	-0.22473	0.254248	0.149696	-0.124896	0.226402	0.071166	0.0454914	0.000376887	-0.328814	-0.142346	-0.229481	0.573001	0.0582115	0.128651	0.00033216	-0.34918	0.195119	-0.0310607	-0.183324	-0.233633	-0.297535	0.661311	2.14826	0.0803957	-0.175882	-0.164407	0.848177	2.14047
0.11	0.0921511	-0.125326	-0.00159373	0.14285	0.911769	-0.223598	0.263811	0.162924	-0.127001	0.248134	0.0793177	0.0415646	0.000380854	-0.281134	-0.170711	-0.235722	0.653247	0.00818469	0.111568	0.000336297	-0.337349	0.208019	-0.0219123	-0.176841	-0.235601	-0.291868	0.664628	2.15131	0.0733999	-0.167276	-0.168107	0.826938	2.14163
0.12	0.080385	-0.136719	-0.00507647	0.15514	0.911996	-0.222502	0.271976	0.175833	-0.126937	0.266653	0.088961	0.0366388	0.00038482	-0.230037	-0.198013	-0.237231	0.734527	-0.0413757	0.0871585	0.000340433	-0.325742	0.220031	-0.0132395	-0.169424	-0.237698	-0.285504	0.669477	2.15403	0.0667406	-0.159387	-0.171635	0.806185	2.1429
0.13	0.0690449	-0.147196	-0.00811297	0.167121	0.912155	-0.221472	0.277918	0.188258	-0.124888	0.281402	0.099417	0.0307409	0.000388786	-0.176565	-0.223588	-0.234133	0.815268	-0.0872891	0.0569938	0.000344569	-0.314913	0.230994	-0.00515471	-0.161137	-0.239902	-0.278517	0.67595	2.15613	0.0605853	-0.152426	-0.174542	0.786173	2.14416
0.14	0.0586495	-0.1566	-0.010435	0.178808	0.912311	-0.220538	0.281012	0.19997	-0.12132	0.29217	0.110154	0.0241284	0.000392751	-0.121726	-0.246801	-0.226664	0.893976	-0.126431	0.0231445	0.000348705	-0.305346	0.240754	0.00223027	-0.15203	-0.242185	-0.270923	0.684002	2.15733	0.0550971	-0.146565	-0.176402	0.767087	2.14529
0.15	0.049618	-0.164806	-0.0117708	0.190223	0.912517	-0.219725	0.280875	0.210698	-0.116876	0.299059	0.120803	0.0172038	0.000396716	-0.0664149	-0.267091	-0.215146	0.969323	-0.156173	-0.0120538	0.00035284	-0.297416	0.249187	0.00879834	-0.142126	-0.244526	-0.262678	0.693448	2.15746	0.0504026	-0.141919	-0.176899	0.749062	2.14619
0.16	0.0422457	-0.171736	-0.0118788	0.201388	0.912815	-0.219058	0.277364	0.220187	-0.112242	0.302408	0.131134	0.0104186	0.00040068	-0.0113758	-0.284011	-0.199983	1.04018	-0.174775	-0.0462734	0.000356974	-0.291355	0.256211	0.0144332	-0.131418	-0.246912	-0.253686	0.703989	2.1565	0.0465621	-0.138516	-0.1759	0.732202	2.14683
0.17	0.0366979	-0.17736	-0.0105903	0.212332	0.913231	-0.218553	0.270539	0.228236	-0.108024	0.302701	0.141025	0.0041869	0.000404643	0.0427977	-0.297262	-0.181678	1.10564	-0.181656	-0.0774653	0.000361108	-0.287246	0.261803	0.0190369	-0.119875	-0.249346	-0.24381	0.715239	2.15452	0.0435472	-0.136298	-0.173499	0.716601	2.14718
